<mxfile host="app.diagrams.net" modified="2023-11-24T04:15:04.930Z" agent="Mozilla/5.0 (Windows NT 10.0; Win64; x64) AppleWebKit/537.36 (KHTML, like Gecko) Chrome/119.0.0.0 Safari/537.36" etag="VHs6oVrQTBfPY3YieySh" version="22.1.3" type="github">
  <diagram name="Page-1" id="b520641d-4fe3-3701-9064-5fc419738815">
    <mxGraphModel dx="4903" dy="2240" grid="1" gridSize="10" guides="1" tooltips="1" connect="1" arrows="1" fold="1" page="1" pageScale="1" pageWidth="1100" pageHeight="850" background="none" math="0" shadow="0">
      <root>
        <mxCell id="0" />
        <mxCell id="1" parent="0" />
        <mxCell id="xv57lifx6EwuE5burWts-9" style="rounded=0;orthogonalLoop=1;jettySize=auto;html=1;strokeWidth=4;strokeColor=#ff0000;entryX=-0.017;entryY=0.299;entryDx=0;entryDy=0;entryPerimeter=0;endArrow=blockThin;endFill=1;" edge="1" parent="1" source="xv57lifx6EwuE5burWts-2" target="xv57lifx6EwuE5burWts-7">
          <mxGeometry relative="1" as="geometry">
            <mxPoint x="150" y="484" as="targetPoint" />
          </mxGeometry>
        </mxCell>
        <mxCell id="xv57lifx6EwuE5burWts-2" value="&lt;div style=&quot;&quot;&gt;&lt;b&gt;Overseas&amp;nbsp;&lt;/b&gt;&lt;/div&gt;&lt;div style=&quot;&quot;&gt;&lt;b&gt;Filipino&lt;/b&gt;&lt;/div&gt;&lt;div style=&quot;&quot;&gt;&lt;b&gt;Workers&amp;nbsp;&lt;/b&gt;&lt;/div&gt;&lt;div style=&quot;&quot;&gt;&lt;b&gt;(OFW)&lt;/b&gt;&lt;/div&gt;" style="html=1;dashed=0;whiteSpace=wrap;shape=mxgraph.dfd.externalEntity;align=center;" vertex="1" parent="1">
          <mxGeometry x="-50" y="417" width="100" height="100" as="geometry" />
        </mxCell>
        <mxCell id="xv57lifx6EwuE5burWts-81" style="rounded=0;orthogonalLoop=1;jettySize=auto;html=1;strokeWidth=4;startArrow=none;startFill=0;endArrow=blockThin;endFill=1;strokeColor=#FF0000;exitX=0;exitY=0;exitDx=67.5;exitDy=0;exitPerimeter=0;" edge="1" parent="1" source="xv57lifx6EwuE5burWts-4" target="xv57lifx6EwuE5burWts-79">
          <mxGeometry relative="1" as="geometry">
            <Array as="points">
              <mxPoint x="1210" y="390" />
              <mxPoint x="1570" y="390" />
              <mxPoint x="1570" y="1360" />
              <mxPoint x="845" y="1360" />
            </Array>
          </mxGeometry>
        </mxCell>
        <mxCell id="xv57lifx6EwuE5burWts-4" value="&lt;div style=&quot;&quot;&gt;&lt;b&gt;Department&lt;/b&gt;&lt;/div&gt;&lt;div style=&quot;&quot;&gt;&lt;b&gt;of Migrant&lt;/b&gt;&lt;/div&gt;&lt;div style=&quot;&quot;&gt;&lt;b&gt;Workers&lt;/b&gt;&lt;/div&gt;&lt;div style=&quot;&quot;&gt;&lt;b&gt;(DMW)&lt;/b&gt;&lt;/div&gt;" style="html=1;dashed=0;whiteSpace=wrap;shape=mxgraph.dfd.externalEntity;align=center;" vertex="1" parent="1">
          <mxGeometry x="1140" y="600" width="100" height="100" as="geometry" />
        </mxCell>
        <mxCell id="xv57lifx6EwuE5burWts-5" value="1" style="swimlane;html=1;fontStyle=0;childLayout=stackLayout;horizontal=1;startSize=26;fillColor=#ffffff;horizontalStack=0;resizeParent=1;resizeLast=0;collapsible=1;marginBottom=0;swimlaneFillColor=#ffffff;align=center;rounded=1;shadow=0;comic=0;labelBackgroundColor=none;strokeWidth=1;fontFamily=Verdana;fontSize=12" vertex="1" parent="1">
          <mxGeometry x="230" y="415" width="90" height="110" as="geometry" />
        </mxCell>
        <mxCell id="xv57lifx6EwuE5burWts-7" value="&lt;font style=&quot;font-size: 11px;&quot;&gt;&lt;br&gt;REGISTER AND CREATE PROFILE&lt;/font&gt;" style="text;html=1;strokeColor=none;fillColor=none;spacingLeft=4;spacingRight=4;whiteSpace=wrap;overflow=hidden;rotatable=0;points=[[0,0.5],[1,0.5]];portConstraint=eastwest;align=center;" vertex="1" parent="xv57lifx6EwuE5burWts-5">
          <mxGeometry y="26" width="90" height="84" as="geometry" />
        </mxCell>
        <mxCell id="xv57lifx6EwuE5burWts-10" value="New OFW Information" style="text;html=1;strokeColor=none;fillColor=none;align=left;verticalAlign=bottom;whiteSpace=wrap;rounded=0;fontSize=12;spacingLeft=10;spacingRight=10;" vertex="1" parent="1">
          <mxGeometry x="50" y="431" width="180" height="33" as="geometry" />
        </mxCell>
        <mxCell id="xv57lifx6EwuE5burWts-11" value="2" style="swimlane;html=1;fontStyle=0;childLayout=stackLayout;horizontal=1;startSize=26;fillColor=#ffffff;horizontalStack=0;resizeParent=1;resizeLast=0;collapsible=1;marginBottom=0;swimlaneFillColor=#ffffff;align=center;rounded=1;shadow=0;comic=0;labelBackgroundColor=none;strokeWidth=1;fontFamily=Verdana;fontSize=12" vertex="1" parent="1">
          <mxGeometry x="230" y="560" width="90" height="110" as="geometry" />
        </mxCell>
        <mxCell id="xv57lifx6EwuE5burWts-12" value="SUBMIT&lt;br&gt;REPORTS&amp;nbsp;&lt;br&gt;AND FEEDBACK" style="text;html=1;strokeColor=none;fillColor=none;spacingLeft=4;spacingRight=4;whiteSpace=wrap;overflow=hidden;rotatable=0;points=[[0,0.5],[1,0.5]];portConstraint=eastwest;align=center;verticalAlign=middle;" vertex="1" parent="xv57lifx6EwuE5burWts-11">
          <mxGeometry y="26" width="90" height="84" as="geometry" />
        </mxCell>
        <mxCell id="xv57lifx6EwuE5burWts-14" style="rounded=0;orthogonalLoop=1;jettySize=auto;html=1;strokeWidth=4;strokeColor=#ff0000;endArrow=blockThin;endFill=1;entryX=0;entryY=0.5;entryDx=0;entryDy=0;" edge="1" parent="1" source="xv57lifx6EwuE5burWts-2" target="xv57lifx6EwuE5burWts-12">
          <mxGeometry relative="1" as="geometry">
            <mxPoint x="60" y="477" as="sourcePoint" />
            <mxPoint x="230" y="595" as="targetPoint" />
            <Array as="points">
              <mxPoint y="628" />
            </Array>
          </mxGeometry>
        </mxCell>
        <mxCell id="xv57lifx6EwuE5burWts-15" value="OFW Inquiry" style="text;html=1;strokeColor=none;fillColor=none;align=left;verticalAlign=bottom;whiteSpace=wrap;rounded=0;fontSize=12;spacingLeft=10;spacingRight=10;" vertex="1" parent="1">
          <mxGeometry x="5" y="590" width="130" height="33" as="geometry" />
        </mxCell>
        <mxCell id="xv57lifx6EwuE5burWts-16" value="D1" style="html=1;dashed=0;whiteSpace=wrap;shape=mxgraph.dfd.dataStoreID;align=left;spacingLeft=3;points=[[0,0],[0.5,0],[1,0],[0,0.5],[1,0.5],[0,1],[0.5,1],[1,1]];" vertex="1" parent="1">
          <mxGeometry x="390" y="452" width="160" height="30" as="geometry" />
        </mxCell>
        <mxCell id="xv57lifx6EwuE5burWts-17" value="OFW Profiles" style="text;html=1;strokeColor=none;fillColor=none;align=center;verticalAlign=middle;whiteSpace=wrap;rounded=0;" vertex="1" parent="1">
          <mxGeometry x="420" y="451" width="120" height="30" as="geometry" />
        </mxCell>
        <mxCell id="xv57lifx6EwuE5burWts-18" style="rounded=0;orthogonalLoop=1;jettySize=auto;html=1;strokeWidth=4;strokeColor=#ff0000;entryX=0;entryY=0.5;entryDx=0;entryDy=0;endArrow=blockThin;endFill=1;" edge="1" parent="1">
          <mxGeometry relative="1" as="geometry">
            <mxPoint x="320" y="466" as="sourcePoint" />
            <mxPoint x="390" y="466" as="targetPoint" />
          </mxGeometry>
        </mxCell>
        <mxCell id="xv57lifx6EwuE5burWts-19" value="D2" style="html=1;dashed=0;whiteSpace=wrap;shape=mxgraph.dfd.dataStoreID;align=left;spacingLeft=3;points=[[0,0],[0.5,0],[1,0],[0,0.5],[1,0.5],[0,1],[0.5,1],[1,1]];" vertex="1" parent="1">
          <mxGeometry x="900" y="613.5" width="160" height="30" as="geometry" />
        </mxCell>
        <mxCell id="xv57lifx6EwuE5burWts-20" value="Concern Database" style="text;html=1;strokeColor=none;fillColor=none;align=center;verticalAlign=middle;whiteSpace=wrap;rounded=0;" vertex="1" parent="1">
          <mxGeometry x="930" y="612.5" width="120" height="30" as="geometry" />
        </mxCell>
        <mxCell id="xv57lifx6EwuE5burWts-21" style="rounded=0;orthogonalLoop=1;jettySize=auto;html=1;strokeWidth=4;strokeColor=#ff0000;entryX=0;entryY=0.5;entryDx=0;entryDy=0;endArrow=blockThin;endFill=1;exitX=1;exitY=0.5;exitDx=0;exitDy=0;" edge="1" parent="1" source="xv57lifx6EwuE5burWts-34" target="xv57lifx6EwuE5burWts-19">
          <mxGeometry relative="1" as="geometry">
            <mxPoint x="829.9999999999998" y="501.5" as="sourcePoint" />
            <mxPoint x="930" y="347.5" as="targetPoint" />
          </mxGeometry>
        </mxCell>
        <mxCell id="xv57lifx6EwuE5burWts-23" style="rounded=0;orthogonalLoop=1;jettySize=auto;html=1;strokeWidth=4;strokeColor=#ff0000;entryX=0;entryY=0;entryDx=32.5;entryDy=100;endArrow=blockThin;endFill=1;entryPerimeter=0;" edge="1" parent="1" target="xv57lifx6EwuE5burWts-2">
          <mxGeometry relative="1" as="geometry">
            <mxPoint x="1140" y="950" as="sourcePoint" />
            <mxPoint x="400" y="476" as="targetPoint" />
            <Array as="points">
              <mxPoint x="1070" y="950" />
              <mxPoint x="1070" y="790" />
              <mxPoint x="-20" y="790" />
              <mxPoint x="-20" y="630" />
            </Array>
          </mxGeometry>
        </mxCell>
        <mxCell id="xv57lifx6EwuE5burWts-25" value="Regular Report Update through Notifications" style="text;html=1;strokeColor=none;fillColor=none;align=left;verticalAlign=bottom;whiteSpace=wrap;rounded=0;fontSize=12;spacingLeft=10;spacingRight=10;" vertex="1" parent="1">
          <mxGeometry x="-20" y="754" width="280" height="33" as="geometry" />
        </mxCell>
        <mxCell id="xv57lifx6EwuE5burWts-27" value="3" style="swimlane;html=1;fontStyle=0;childLayout=stackLayout;horizontal=1;startSize=26;fillColor=#ffffff;horizontalStack=0;resizeParent=1;resizeLast=0;collapsible=1;marginBottom=0;swimlaneFillColor=#ffffff;align=center;rounded=1;shadow=0;comic=0;labelBackgroundColor=none;strokeWidth=1;fontFamily=Verdana;fontSize=12" vertex="1" parent="1">
          <mxGeometry x="480" y="560" width="90" height="110" as="geometry" />
        </mxCell>
        <mxCell id="xv57lifx6EwuE5burWts-28" value="CATEGORIZE&lt;br&gt;ISSUES" style="text;html=1;strokeColor=none;fillColor=none;spacingLeft=4;spacingRight=4;whiteSpace=wrap;overflow=hidden;rotatable=0;points=[[0,0.5],[1,0.5]];portConstraint=eastwest;align=center;verticalAlign=middle;" vertex="1" parent="xv57lifx6EwuE5burWts-27">
          <mxGeometry y="26" width="90" height="84" as="geometry" />
        </mxCell>
        <mxCell id="xv57lifx6EwuE5burWts-29" style="rounded=0;orthogonalLoop=1;jettySize=auto;html=1;strokeWidth=4;strokeColor=#ff0000;entryX=0;entryY=0.5;entryDx=0;entryDy=0;endArrow=blockThin;endFill=1;exitX=1;exitY=0.5;exitDx=0;exitDy=0;" edge="1" parent="1" source="xv57lifx6EwuE5burWts-12" target="xv57lifx6EwuE5burWts-28">
          <mxGeometry relative="1" as="geometry">
            <mxPoint x="330" y="476" as="sourcePoint" />
            <mxPoint x="400" y="476" as="targetPoint" />
          </mxGeometry>
        </mxCell>
        <mxCell id="xv57lifx6EwuE5burWts-31" style="rounded=0;orthogonalLoop=1;jettySize=auto;html=1;strokeWidth=4;strokeColor=#ff0000;endArrow=blockThin;endFill=1;exitX=0.785;exitY=-0.006;exitDx=0;exitDy=0;entryX=0;entryY=0;entryDx=45;entryDy=0;entryPerimeter=0;exitPerimeter=0;" edge="1" parent="1" source="xv57lifx6EwuE5burWts-33" target="xv57lifx6EwuE5burWts-4">
          <mxGeometry relative="1" as="geometry">
            <mxPoint x="480" y="638" as="sourcePoint" />
            <mxPoint x="980" y="680" as="targetPoint" />
            <Array as="points">
              <mxPoint x="791" y="510" />
              <mxPoint x="830" y="510" />
              <mxPoint x="940" y="510" />
              <mxPoint x="1185" y="510" />
            </Array>
          </mxGeometry>
        </mxCell>
        <mxCell id="xv57lifx6EwuE5burWts-33" value="4" style="swimlane;html=1;fontStyle=0;childLayout=stackLayout;horizontal=1;startSize=26;fillColor=#ffffff;horizontalStack=0;resizeParent=1;resizeLast=0;collapsible=1;marginBottom=0;swimlaneFillColor=#ffffff;align=center;rounded=1;shadow=0;comic=0;labelBackgroundColor=none;strokeWidth=1;fontFamily=Verdana;fontSize=12" vertex="1" parent="1">
          <mxGeometry x="720" y="560" width="90" height="110" as="geometry" />
        </mxCell>
        <mxCell id="xv57lifx6EwuE5burWts-34" value="SORT&lt;br&gt;REPORTS" style="text;html=1;strokeColor=none;fillColor=none;spacingLeft=4;spacingRight=4;whiteSpace=wrap;overflow=hidden;rotatable=0;points=[[0,0.5],[1,0.5]];portConstraint=eastwest;align=center;verticalAlign=middle;" vertex="1" parent="xv57lifx6EwuE5burWts-33">
          <mxGeometry y="26" width="90" height="84" as="geometry" />
        </mxCell>
        <mxCell id="xv57lifx6EwuE5burWts-35" style="rounded=0;orthogonalLoop=1;jettySize=auto;html=1;strokeWidth=4;strokeColor=#ff0000;endArrow=blockThin;endFill=1;exitX=1;exitY=0.5;exitDx=0;exitDy=0;entryX=0;entryY=0.5;entryDx=0;entryDy=0;" edge="1" parent="1" source="xv57lifx6EwuE5burWts-28" target="xv57lifx6EwuE5burWts-34">
          <mxGeometry relative="1" as="geometry">
            <mxPoint x="760" y="638" as="sourcePoint" />
            <mxPoint x="670" y="620" as="targetPoint" />
          </mxGeometry>
        </mxCell>
        <mxCell id="xv57lifx6EwuE5burWts-36" value="Sends &lt;br&gt;to categorize issue&amp;nbsp;" style="text;html=1;strokeColor=none;fillColor=none;align=left;verticalAlign=bottom;whiteSpace=wrap;rounded=0;fontSize=12;spacingLeft=10;spacingRight=10;" vertex="1" parent="1">
          <mxGeometry x="320" y="593" width="150" height="33" as="geometry" />
        </mxCell>
        <mxCell id="xv57lifx6EwuE5burWts-37" value="Sort priority and unresolved reports" style="text;html=1;strokeColor=none;fillColor=none;align=left;verticalAlign=bottom;whiteSpace=wrap;rounded=0;fontSize=12;spacingLeft=10;spacingRight=10;" vertex="1" parent="1">
          <mxGeometry x="570" y="593" width="150" height="33" as="geometry" />
        </mxCell>
        <mxCell id="xv57lifx6EwuE5burWts-38" value="Receives Sorted Reports" style="text;html=1;strokeColor=none;fillColor=none;align=left;verticalAlign=bottom;whiteSpace=wrap;rounded=0;fontSize=12;spacingLeft=10;spacingRight=10;" vertex="1" parent="1">
          <mxGeometry x="1020" y="500" width="190" height="33" as="geometry" />
        </mxCell>
        <mxCell id="xv57lifx6EwuE5burWts-39" value="5" style="swimlane;html=1;fontStyle=0;childLayout=stackLayout;horizontal=1;startSize=26;fillColor=#ffffff;horizontalStack=0;resizeParent=1;resizeLast=0;collapsible=1;marginBottom=0;swimlaneFillColor=#ffffff;align=center;rounded=1;shadow=0;comic=0;labelBackgroundColor=none;strokeWidth=1;fontFamily=Verdana;fontSize=12" vertex="1" parent="1">
          <mxGeometry x="1150" y="754" width="90" height="110" as="geometry" />
        </mxCell>
        <mxCell id="xv57lifx6EwuE5burWts-40" value="REVIEW&lt;br&gt;CONCERNS" style="text;html=1;strokeColor=none;fillColor=none;spacingLeft=4;spacingRight=4;whiteSpace=wrap;overflow=hidden;rotatable=0;points=[[0,0.5],[1,0.5]];portConstraint=eastwest;align=center;verticalAlign=middle;" vertex="1" parent="xv57lifx6EwuE5burWts-39">
          <mxGeometry y="26" width="90" height="84" as="geometry" />
        </mxCell>
        <mxCell id="xv57lifx6EwuE5burWts-41" style="rounded=0;orthogonalLoop=1;jettySize=auto;html=1;strokeWidth=4;strokeColor=#ff0000;entryX=0.5;entryY=0;entryDx=0;entryDy=0;endArrow=blockThin;endFill=1;exitX=0;exitY=0;exitDx=55;exitDy=100;exitPerimeter=0;" edge="1" parent="1" source="xv57lifx6EwuE5burWts-4" target="xv57lifx6EwuE5burWts-39">
          <mxGeometry relative="1" as="geometry">
            <mxPoint x="820" y="652" as="sourcePoint" />
            <mxPoint x="910" y="653" as="targetPoint" />
          </mxGeometry>
        </mxCell>
        <mxCell id="xv57lifx6EwuE5burWts-42" style="rounded=0;orthogonalLoop=1;jettySize=auto;html=1;strokeWidth=4;strokeColor=#ff0000;entryX=0;entryY=0;entryDx=10;entryDy=100;entryPerimeter=0;endArrow=blockThin;endFill=1;" edge="1" parent="1" target="xv57lifx6EwuE5burWts-2">
          <mxGeometry relative="1" as="geometry">
            <mxPoint x="1144" y="990" as="sourcePoint" />
            <mxPoint x="238" y="476" as="targetPoint" />
            <Array as="points">
              <mxPoint x="1030" y="990" />
              <mxPoint x="1030" y="830" />
              <mxPoint x="-40" y="830" />
              <mxPoint x="-40" y="690" />
            </Array>
          </mxGeometry>
        </mxCell>
        <mxCell id="xv57lifx6EwuE5burWts-43" value="Receive Acknowledgement Receipt" style="text;html=1;strokeColor=none;fillColor=none;align=left;verticalAlign=bottom;whiteSpace=wrap;rounded=0;fontSize=12;spacingLeft=10;spacingRight=10;" vertex="1" parent="1">
          <mxGeometry x="-40" y="792.5" width="220" height="33" as="geometry" />
        </mxCell>
        <mxCell id="xv57lifx6EwuE5burWts-44" value="6" style="swimlane;html=1;fontStyle=0;childLayout=stackLayout;horizontal=1;startSize=26;fillColor=#ffffff;horizontalStack=0;resizeParent=1;resizeLast=0;collapsible=1;marginBottom=0;swimlaneFillColor=#ffffff;align=center;rounded=1;shadow=0;comic=0;labelBackgroundColor=none;strokeWidth=1;fontFamily=Verdana;fontSize=12" vertex="1" parent="1">
          <mxGeometry x="1145" y="920" width="90" height="110" as="geometry" />
        </mxCell>
        <mxCell id="xv57lifx6EwuE5burWts-45" value="LEVEL OF PROGRESS REPORT" style="text;html=1;strokeColor=none;fillColor=none;spacingLeft=4;spacingRight=4;whiteSpace=wrap;overflow=hidden;rotatable=0;points=[[0,0.5],[1,0.5]];portConstraint=eastwest;align=center;verticalAlign=middle;" vertex="1" parent="xv57lifx6EwuE5burWts-44">
          <mxGeometry y="26" width="90" height="84" as="geometry" />
        </mxCell>
        <mxCell id="xv57lifx6EwuE5burWts-46" style="rounded=0;orthogonalLoop=1;jettySize=auto;html=1;strokeWidth=4;strokeColor=#ff0000;entryX=0.5;entryY=0;entryDx=0;entryDy=0;endArrow=blockThin;endFill=1;exitX=0.458;exitY=0.988;exitDx=0;exitDy=0;exitPerimeter=0;" edge="1" parent="1" source="xv57lifx6EwuE5burWts-40" target="xv57lifx6EwuE5burWts-44">
          <mxGeometry relative="1" as="geometry">
            <mxPoint x="820" y="638" as="sourcePoint" />
            <mxPoint x="910" y="639" as="targetPoint" />
          </mxGeometry>
        </mxCell>
        <mxCell id="xv57lifx6EwuE5burWts-50" value="Undergo the FSREB structured workflow" style="text;html=1;strokeColor=none;fillColor=none;align=left;verticalAlign=bottom;whiteSpace=wrap;rounded=0;fontSize=12;spacingLeft=10;spacingRight=10;" vertex="1" parent="1">
          <mxGeometry x="1200" y="709" width="150" height="33" as="geometry" />
        </mxCell>
        <mxCell id="xv57lifx6EwuE5burWts-51" value="&lt;div style=&quot;&quot;&gt;&lt;b&gt;DIVISIONS&lt;/b&gt;&lt;/div&gt;&lt;div style=&quot;font-size: 11px;&quot;&gt;&lt;b style=&quot;&quot;&gt;&lt;font style=&quot;font-size: 11px;&quot;&gt;Asia Pacific,&lt;/font&gt;&lt;/b&gt;&lt;/div&gt;&lt;div style=&quot;font-size: 11px;&quot;&gt;&lt;b style=&quot;background-color: initial;&quot;&gt;Europe/&lt;/b&gt;&lt;/div&gt;&lt;div style=&quot;font-size: 11px;&quot;&gt;&lt;b&gt;&lt;font style=&quot;font-size: 11px;&quot;&gt;America&lt;/font&gt;&lt;/b&gt;&lt;/div&gt;&lt;div style=&quot;font-size: 11px;&quot;&gt;&lt;b style=&quot;&quot;&gt;&lt;font style=&quot;font-size: 11px;&quot;&gt;Middle East&lt;/font&gt;&lt;/b&gt;&lt;/div&gt;" style="html=1;dashed=0;whiteSpace=wrap;shape=mxgraph.dfd.externalEntity;align=center;verticalAlign=middle;" vertex="1" parent="1">
          <mxGeometry x="1330" y="600" width="100" height="100" as="geometry" />
        </mxCell>
        <mxCell id="xv57lifx6EwuE5burWts-53" style="rounded=0;orthogonalLoop=1;jettySize=auto;html=1;strokeWidth=4;strokeColor=#ff0000;endArrow=blockThin;endFill=1;exitX=0.5;exitY=0;exitDx=0;exitDy=0;entryX=0;entryY=0;entryDx=45;entryDy=0;entryPerimeter=0;" edge="1" parent="1" source="xv57lifx6EwuE5burWts-33" target="xv57lifx6EwuE5burWts-51">
          <mxGeometry relative="1" as="geometry">
            <mxPoint x="775" y="570" as="sourcePoint" />
            <mxPoint x="1195" y="610" as="targetPoint" />
            <Array as="points">
              <mxPoint x="765" y="470" />
              <mxPoint x="840" y="470" />
              <mxPoint x="900" y="470" />
              <mxPoint x="970" y="470" />
              <mxPoint x="1375" y="470" />
            </Array>
          </mxGeometry>
        </mxCell>
        <mxCell id="xv57lifx6EwuE5burWts-54" value="Escalate report to originated region" style="text;html=1;strokeColor=none;fillColor=none;align=left;verticalAlign=top;whiteSpace=wrap;rounded=0;fontSize=12;spacingLeft=10;spacingRight=10;" vertex="1" parent="1">
          <mxGeometry x="770" y="467" width="300" height="33" as="geometry" />
        </mxCell>
        <mxCell id="xv57lifx6EwuE5burWts-55" value="7" style="swimlane;html=1;fontStyle=0;childLayout=stackLayout;horizontal=1;startSize=26;fillColor=#ffffff;horizontalStack=0;resizeParent=1;resizeLast=0;collapsible=1;marginBottom=0;swimlaneFillColor=#ffffff;align=center;rounded=1;shadow=0;comic=0;labelBackgroundColor=none;strokeWidth=1;fontFamily=Verdana;fontSize=12" vertex="1" parent="1">
          <mxGeometry x="1150" y="1050" width="90" height="110" as="geometry" />
        </mxCell>
        <mxCell id="xv57lifx6EwuE5burWts-56" value="COME UP WITH A&lt;br&gt;RESOLUTION" style="text;html=1;strokeColor=none;fillColor=none;spacingLeft=4;spacingRight=4;whiteSpace=wrap;overflow=hidden;rotatable=0;points=[[0,0.5],[1,0.5]];portConstraint=eastwest;align=center;verticalAlign=middle;" vertex="1" parent="xv57lifx6EwuE5burWts-55">
          <mxGeometry y="26" width="90" height="84" as="geometry" />
        </mxCell>
        <mxCell id="xv57lifx6EwuE5burWts-58" style="rounded=0;orthogonalLoop=1;jettySize=auto;html=1;strokeWidth=4;strokeColor=#FF0000;endArrow=blockThin;endFill=1;exitX=0;exitY=0;exitDx=55;exitDy=100;exitPerimeter=0;entryX=0.991;entryY=0.223;entryDx=0;entryDy=0;entryPerimeter=0;" edge="1" parent="1" source="xv57lifx6EwuE5burWts-51" target="xv57lifx6EwuE5burWts-56">
          <mxGeometry relative="1" as="geometry">
            <mxPoint x="1160" y="832" as="sourcePoint" />
            <mxPoint x="1250" y="1110" as="targetPoint" />
            <Array as="points">
              <mxPoint x="1385" y="1095" />
            </Array>
          </mxGeometry>
        </mxCell>
        <mxCell id="xv57lifx6EwuE5burWts-59" value="D3" style="html=1;dashed=0;whiteSpace=wrap;shape=mxgraph.dfd.dataStoreID;align=left;spacingLeft=3;points=[[0,0],[0.5,0],[1,0],[0,0.5],[1,0.5],[0,1],[0.5,1],[1,1]];" vertex="1" parent="1">
          <mxGeometry x="1333.5200000000002" y="1120" width="160" height="30" as="geometry" />
        </mxCell>
        <mxCell id="xv57lifx6EwuE5burWts-60" value="Resolution Archives" style="text;html=1;strokeColor=none;fillColor=none;align=center;verticalAlign=middle;whiteSpace=wrap;rounded=0;" vertex="1" parent="1">
          <mxGeometry x="1363.5200000000002" y="1119" width="120" height="30" as="geometry" />
        </mxCell>
        <mxCell id="xv57lifx6EwuE5burWts-61" style="rounded=0;orthogonalLoop=1;jettySize=auto;html=1;strokeWidth=4;strokeColor=#ff0000;entryX=0;entryY=0.5;entryDx=0;entryDy=0;endArrow=blockThin;endFill=1;exitX=1.029;exitY=0.699;exitDx=0;exitDy=0;exitPerimeter=0;" edge="1" parent="1" source="xv57lifx6EwuE5burWts-56" target="xv57lifx6EwuE5burWts-59">
          <mxGeometry relative="1" as="geometry">
            <mxPoint x="1180" y="1134.3799999999999" as="sourcePoint" />
            <mxPoint x="1423.5200000000002" y="779" as="targetPoint" />
            <Array as="points" />
          </mxGeometry>
        </mxCell>
        <mxCell id="xv57lifx6EwuE5burWts-63" value="8" style="swimlane;html=1;fontStyle=0;childLayout=stackLayout;horizontal=1;startSize=26;fillColor=#ffffff;horizontalStack=0;resizeParent=1;resizeLast=0;collapsible=1;marginBottom=0;swimlaneFillColor=#ffffff;align=center;rounded=1;shadow=0;comic=0;labelBackgroundColor=none;strokeWidth=1;fontFamily=Verdana;fontSize=12" vertex="1" parent="1">
          <mxGeometry x="1145" y="1190" width="90" height="110" as="geometry" />
        </mxCell>
        <mxCell id="xv57lifx6EwuE5burWts-64" value="GENERATE&amp;nbsp;&lt;br&gt;SUMMARIES OF FREQUENT&lt;br&gt;REPORTS" style="text;html=1;strokeColor=none;fillColor=none;spacingLeft=4;spacingRight=4;whiteSpace=wrap;overflow=hidden;rotatable=0;points=[[0,0.5],[1,0.5]];portConstraint=eastwest;align=center;verticalAlign=middle;" vertex="1" parent="xv57lifx6EwuE5burWts-63">
          <mxGeometry y="26" width="90" height="84" as="geometry" />
        </mxCell>
        <mxCell id="xv57lifx6EwuE5burWts-65" style="rounded=0;orthogonalLoop=1;jettySize=auto;html=1;strokeWidth=4;strokeColor=#ff0000;endArrow=blockThin;endFill=1;entryX=1;entryY=0.5;entryDx=0;entryDy=0;exitX=0.138;exitY=0.02;exitDx=0;exitDy=0;exitPerimeter=0;" edge="1" parent="1" source="xv57lifx6EwuE5burWts-33" target="xv57lifx6EwuE5burWts-64">
          <mxGeometry relative="1" as="geometry">
            <mxPoint x="731" y="560" as="sourcePoint" />
            <mxPoint x="1520" y="1260" as="targetPoint" />
            <Array as="points">
              <mxPoint x="731" y="430" />
              <mxPoint x="920" y="430" />
              <mxPoint x="1530" y="430" />
              <mxPoint x="1530" y="1260" />
            </Array>
          </mxGeometry>
        </mxCell>
        <mxCell id="xv57lifx6EwuE5burWts-67" style="rounded=0;orthogonalLoop=1;jettySize=auto;html=1;strokeWidth=4;strokeColor=#FF0000;entryX=0;entryY=0;entryDx=0;entryDy=67.5;entryPerimeter=0;endArrow=blockThin;endFill=1;exitX=-0.029;exitY=0.97;exitDx=0;exitDy=0;exitPerimeter=0;startArrow=blockThin;startFill=1;" edge="1" parent="1" source="xv57lifx6EwuE5burWts-45" target="xv57lifx6EwuE5burWts-2">
          <mxGeometry relative="1" as="geometry">
            <mxPoint x="1154" y="1000" as="sourcePoint" />
            <mxPoint x="-30" y="527" as="targetPoint" />
            <Array as="points">
              <mxPoint x="990" y="1030" />
              <mxPoint x="990" y="870" />
              <mxPoint x="490" y="870" />
              <mxPoint x="-90" y="870" />
              <mxPoint x="-90" y="485" />
            </Array>
          </mxGeometry>
        </mxCell>
        <mxCell id="xv57lifx6EwuE5burWts-70" value="9" style="swimlane;html=1;fontStyle=0;childLayout=stackLayout;horizontal=1;startSize=26;fillColor=#ffffff;horizontalStack=0;resizeParent=1;resizeLast=0;collapsible=1;marginBottom=0;swimlaneFillColor=#ffffff;align=center;rounded=1;shadow=0;comic=0;labelBackgroundColor=none;strokeWidth=1;fontFamily=Verdana;fontSize=12" vertex="1" parent="1">
          <mxGeometry x="1000" y="1190" width="90" height="110" as="geometry" />
        </mxCell>
        <mxCell id="xv57lifx6EwuE5burWts-71" value="PROVIDE&lt;br&gt;A FORM" style="text;html=1;strokeColor=none;fillColor=none;spacingLeft=4;spacingRight=4;whiteSpace=wrap;overflow=hidden;rotatable=0;points=[[0,0.5],[1,0.5]];portConstraint=eastwest;align=center;verticalAlign=middle;" vertex="1" parent="xv57lifx6EwuE5burWts-70">
          <mxGeometry y="26" width="90" height="84" as="geometry" />
        </mxCell>
        <mxCell id="xv57lifx6EwuE5burWts-73" style="rounded=0;orthogonalLoop=1;jettySize=auto;html=1;strokeWidth=4;strokeColor=#ff0000;endArrow=blockThin;endFill=1;entryX=0;entryY=0;entryDx=0;entryDy=45;entryPerimeter=0;exitX=0;exitY=0.5;exitDx=0;exitDy=0;" edge="1" parent="1" source="xv57lifx6EwuE5burWts-71" target="xv57lifx6EwuE5burWts-2">
          <mxGeometry relative="1" as="geometry">
            <mxPoint x="850" y="1120" as="sourcePoint" />
            <mxPoint x="240" y="638" as="targetPoint" />
            <Array as="points">
              <mxPoint x="950" y="1258" />
              <mxPoint x="950" y="910" />
              <mxPoint x="-130" y="910" />
              <mxPoint x="-130" y="462" />
            </Array>
          </mxGeometry>
        </mxCell>
        <mxCell id="xv57lifx6EwuE5burWts-74" style="rounded=0;orthogonalLoop=1;jettySize=auto;html=1;strokeWidth=4;strokeColor=#ff0000;entryX=1;entryY=0.5;entryDx=0;entryDy=0;endArrow=blockThin;endFill=1;exitX=0;exitY=0.5;exitDx=0;exitDy=0;" edge="1" parent="1" source="xv57lifx6EwuE5burWts-64" target="xv57lifx6EwuE5burWts-71">
          <mxGeometry relative="1" as="geometry">
            <mxPoint x="1253" y="1145" as="sourcePoint" />
            <mxPoint x="1344" y="1145" as="targetPoint" />
            <Array as="points" />
          </mxGeometry>
        </mxCell>
        <mxCell id="xv57lifx6EwuE5burWts-76" value="Handle Resolutions" style="text;html=1;strokeColor=none;fillColor=none;align=left;verticalAlign=bottom;whiteSpace=wrap;rounded=0;fontSize=12;spacingLeft=10;spacingRight=10;" vertex="1" parent="1">
          <mxGeometry x="1250" y="1060" width="130" height="33" as="geometry" />
        </mxCell>
        <mxCell id="xv57lifx6EwuE5burWts-77" value="Survey particular concerns" style="text;html=1;strokeColor=none;fillColor=none;align=right;verticalAlign=bottom;whiteSpace=wrap;rounded=0;fontSize=12;spacingLeft=10;spacingRight=10;" vertex="1" parent="1">
          <mxGeometry x="760" y="870" width="190" height="33" as="geometry" />
        </mxCell>
        <mxCell id="xv57lifx6EwuE5burWts-78" value="10" style="swimlane;html=1;fontStyle=0;childLayout=stackLayout;horizontal=1;startSize=26;fillColor=#ffffff;horizontalStack=0;resizeParent=1;resizeLast=0;collapsible=1;marginBottom=0;swimlaneFillColor=#ffffff;align=center;rounded=1;shadow=0;comic=0;labelBackgroundColor=none;strokeWidth=1;fontFamily=Verdana;fontSize=12" vertex="1" parent="1">
          <mxGeometry x="800" y="1190" width="90" height="110" as="geometry" />
        </mxCell>
        <mxCell id="xv57lifx6EwuE5burWts-79" value="DISTRIBUTE&lt;br&gt;ANNOUNCE-MENTS" style="text;html=1;strokeColor=none;fillColor=none;spacingLeft=4;spacingRight=4;whiteSpace=wrap;overflow=hidden;rotatable=0;points=[[0,0.5],[1,0.5]];portConstraint=eastwest;align=center;verticalAlign=middle;" vertex="1" parent="xv57lifx6EwuE5burWts-78">
          <mxGeometry y="26" width="90" height="84" as="geometry" />
        </mxCell>
        <mxCell id="xv57lifx6EwuE5burWts-82" style="rounded=0;orthogonalLoop=1;jettySize=auto;html=1;entryX=0;entryY=0.13;entryDx=0;entryDy=0;entryPerimeter=0;exitX=0.5;exitY=0;exitDx=0;exitDy=0;strokeWidth=4;strokeColor=#FF0000;" edge="1" parent="1" source="xv57lifx6EwuE5burWts-78" target="xv57lifx6EwuE5burWts-2">
          <mxGeometry relative="1" as="geometry">
            <Array as="points">
              <mxPoint x="845" y="950" />
              <mxPoint x="-170" y="950" />
              <mxPoint x="-170" y="430" />
            </Array>
          </mxGeometry>
        </mxCell>
        <mxCell id="xv57lifx6EwuE5burWts-83" value="Disseminates issues, policies and amendments, bilateral agreements, DMW news and updates" style="text;html=1;strokeColor=none;fillColor=none;align=right;verticalAlign=bottom;whiteSpace=wrap;rounded=0;fontSize=12;spacingLeft=10;spacingRight=10;" vertex="1" parent="1">
          <mxGeometry x="280" y="910" width="570" height="33" as="geometry" />
        </mxCell>
      </root>
    </mxGraphModel>
  </diagram>
</mxfile>
